<?xml version="1.0" encoding="UTF-8" standalone="no"?>
<!DOCTYPE svg PUBLIC "-//W3C//DTD SVG 1.1//EN" "http://www.w3.org/Graphics/SVG/1.1/DTD/svg11.dtd">
<svg width="100%" height="100%" viewBox="0 0 100 100" version="1.1" xmlns="http://www.w3.org/2000/svg" xmlns:xlink="http://www.w3.org/1999/xlink" xml:space="preserve" xmlns:serif="http://www.serif.com/" style="fill-rule:evenodd;clip-rule:evenodd;stroke-linejoin:round;stroke-miterlimit:2;">
    <path d="M74.4,17.1C69.3,11.5 62.5,7.6 52.9,6.4L47.1,6.4C37.4,7.6 30.5,11.7 25.3,17.7C20.5,23.1 16,31.6 17.5,42.3C18.2,47.8 20.6,53.3 22.8,58C27.3,67.7 32.6,75.4 39.2,83.6C40.6,85.4 42.1,87.4 44,89.4C45.5,91 48.3,93.8 50,93.8L50.2,93.8C52.1,93.7 54.9,90.9 56.3,89.4C61.3,83.7 66,77.2 70,71C72.8,66.6 75.3,62.2 77.7,57.2C79.9,52.5 82.4,46.7 82.8,41C83.5,30.5 79.1,22.2 74.4,17.1ZM50,58.1C39.8,58.1 31.5,49.8 31.5,39.6C31.5,29.4 39.8,21.1 50,21.1C60.2,21.1 68.5,29.4 68.5,39.6C68.5,49.8 60.2,58.1 50,58.1Z" style="fill:rgb(254,73,44);fill-rule:nonzero;"/>
</svg>
